<svg xmlns="http://www.w3.org/2000/svg" viewBox="0 0 512 512">
  <defs>
    <linearGradient id="bg" x1="0" y1="0" x2="0" y2="1">
      <stop offset="0%" stop-color="#25D366"/>
      <stop offset="100%" stop-color="#128C7E"/>
    </linearGradient>
  </defs>
  <!-- Rounded square background -->
  <rect width="512" height="512" rx="102" ry="102" fill="url(#bg)"/>
  <!-- Chat bubble -->
  <path d="M256 88c-92.8 0-168 68.6-168 153.2 0 27.1 7.6 52.6 20.8 74.8L89 420l108.4-18.4
    c17.6 8.4 37.2 13.6 58.6 13.6 92.8 0 168-68.6 168-153.2S348.8 88 256 88z"
    fill="white"/>
  <!-- Phone icon -->
  <path d="M206 167c-3.6-8-7.4-8.2-10.8-8.4h-9.2c-3.2 0-8.4 1.2-12.8 6s-16.4 16-16.4 39
    s16.8 45.2 19.2 48.4c2.4 3.2 32.4 52 80 70.8 39.6 15.6 47.6 12.4 56.2 11.6
    s28-11.4 32-22.4 4-20.4 2.8-22.4-4.4-3.2-9.2-5.6l-32.4-16.4c-4.8-2.4-8-3.6-11.6 1.2
    s-13.2 16.4-16.2 19.6c-3 3.2-5.6 3.6-10.4 1.2s-20.6-7.6-39.2-24.2
    c-14.4-12.8-24.2-28.8-27-33.6s-.4-7.4 2-9.8c2.2-2.2 4.8-5.6 7.2-8.4
    s3.2-4.8 4.8-8 .8-6-.4-8.4S196.6 175.4 206 167z"
    fill="#25D366"/>
</svg>
